P1
10 10
0000000000
0100001110
0010001110
0000000000
0000000000
0000000000
0000000000
0111000100
0111000010
0000000000
