P1
10 5
0000000000
0100001110
0010001110
0000000000
0000000000
